# xmcd
#
# Track frame offsets:
#	150
#	20239
#	45748
#	63146
#	93501
#	100867
#	114845
#	129779
#	152602
#	182557
#	202536
#	217274
#	223444
#	255951
#	281654
#	298279
#	318382
#
# Disc length: 4407 seconds
#
# Revision: 1
# Processed by: cddbd v1.5.2PL0 Copyright (c) Steve Scherf et al.
# Submitted via: audiograbber 1.83.01
#
DISCID=f7113511
DTITLE=MARK BILLINGHAM (Stefan Kaminski) - Die Lügen der anderen (3v4)
DYEAR=2014
DGENRE=Hörbuch
TTITLE0=An dem Tag, an dem ich hinausfuhr.. - LONDON
TTITLE1=Zwei Tage nach Jenny''s E-Mail.. - LONDON
TTITLE2=Es war Samstag, später Nachmittag.. - LONDON
TTITLE3=Als Ed hereinkam... - LONDON
TTITLE4=Das Haus stand in einer langen, baumbestandenen Straße.. - LONDON
TTITLE5=Den gewöhnlichen Alltag aufrechtzuerhalten... - LONDON
TTITLE6='Hier hat sich was verändert - LONDON
TTITLE7=Die Katze machte kehrt - LONDON
TTITLE8=Marina und Angie saßen draußen.. - LONDON
TTITLE9=Donnerstagfrüh traf die Akte aus dem zentralregister ein... - LONDON
TTITLE10=Cullen nickte, lehnte sich zurück... - LONDON
TTITLE11=Jenny stand auf dem Bürgersteig... - LONDON
TTITLE12=Barry hatte offenbar gute Laune.. - LONDON
TTITLE13=Ed war mit dem Telefon am Ohr.. - LONDON
TTITLE14=Dave liebte den markt von Brixton am Samstagmorgen.. - LONDON
TTITLE15=Marina kam aus der Toilettenkabine.. - LONDON
TTITLE16=Alles bereit für das letzte Abendmahl.. - LONDON
EXTD=
EXTT0=
EXTT1=
EXTT2=
EXTT3=
EXTT4=
EXTT5=
EXTT6=
EXTT7=
EXTT8=
EXTT9=
EXTT10=
EXTT11=
EXTT12=
EXTT13=
EXTT14=
EXTT15=
EXTT16=
PLAYORDER=
